<?xml version="1.0" standalone="no"?>
<!DOCTYPE svg PUBLIC "-//W3C//DTD SVG 20010904//EN"
 "http://www.w3.org/TR/2001/REC-SVG-20010904/DTD/svg10.dtd">
<svg version="1.0" xmlns="http://www.w3.org/2000/svg"
 width="689.000000pt" height="689.000000pt" viewBox="0 0 689.000000 689.000000"
 preserveAspectRatio="xMidYMid meet">
<metadata>
Created by potrace 1.14, written by Peter Selinger 2001-2017
</metadata>
<g transform="translate(0.000000,689.000000) scale(0.100000,-0.100000)"
fill="#000000" stroke="none">
<path d="M4316 6778 c3 -4 0 -8 -6 -8 -6 0 -8 -4 -5 -10 3 -5 1 -10 -5 -10 -6
0 -8 -5 -4 -11 4 -7 -2 -6 -17 2 -22 11 -23 11 -11 -4 12 -14 11 -16 -7 -12
-18 3 -20 1 -11 -16 9 -15 7 -19 -5 -19 -8 0 -14 -6 -12 -12 1 -7 -5 -12 -14
-12 -12 1 -15 -4 -11 -19 3 -13 1 -18 -5 -14 -7 5 -9 0 -6 -13 3 -12 0 -20 -7
-20 -9 0 -9 -4 1 -17 8 -9 9 -14 4 -11 -6 4 -17 -2 -24 -14 -7 -11 -8 -17 -2
-13 19 11 12 -14 -9 -35 -12 -12 -15 -20 -7 -20 9 0 8 -3 -2 -9 -8 -5 -10 -14
-5 -22 6 -11 4 -11 -10 0 -9 8 -16 10 -14 5 1 -5 -3 -18 -9 -29 -6 -11 -13
-37 -17 -58 -5 -27 -11 -37 -21 -33 -10 3 -12 -2 -9 -20 3 -16 1 -23 -6 -19
-6 3 -10 -3 -10 -14 0 -12 -7 -21 -15 -21 -13 0 -14 -4 -4 -21 8 -16 8 -20 -1
-14 -7 4 -13 -1 -17 -14 -3 -12 -9 -21 -14 -21 -5 0 -9 -5 -9 -11 0 -5 5 -7
12 -3 7 4 8 3 4 -4 -4 -7 -14 -12 -22 -12 -13 0 -19 -13 -15 -34 1 -5 -5 -6
-14 -2 -13 5 -15 1 -10 -15 5 -15 4 -19 -4 -15 -10 6 -15 -6 -12 -26 0 -5 -4
-8 -10 -8 -5 0 -7 -4 -4 -10 3 -5 0 -10 -7 -10 -9 0 -9 -3 2 -10 12 -8 11 -10
-8 -10 -20 0 -21 -3 -12 -20 9 -16 8 -18 -5 -14 -10 4 -15 0 -15 -11 0 -15 -2
-15 -16 -5 -8 8 -14 9 -12 4 1 -5 -10 -22 -26 -39 -16 -16 -26 -25 -23 -19 5
8 -2 11 -18 10 -14 0 -25 -7 -25 -15 0 -11 -3 -11 -16 -1 -8 8 -14 9 -13 4 1
-5 1 -16 0 -24 -1 -13 -2 -13 -11 0 -9 13 -10 13 -10 0 -1 -13 -2 -13 -9 0 -7
11 -26 15 -69 15 -48 -1 -59 2 -54 14 4 11 -1 13 -22 9 -15 -3 -25 -3 -22 -1
2 3 -3 13 -12 23 -11 14 -19 16 -28 9 -8 -7 -14 -6 -19 1 -4 6 -13 9 -21 6 -7
-3 -17 0 -21 7 -5 7 -15 13 -23 13 -28 3 -45 9 -52 19 -5 6 -8 5 -8 -3 0 -9
-5 -10 -19 -2 -14 7 -21 6 -24 -3 -3 -7 -6 -5 -6 5 -1 9 -6 20 -13 24 -8 5 -9
2 -5 -9 6 -16 4 -16 -23 -2 -18 9 -30 11 -30 5 0 -7 -6 -8 -19 0 -14 7 -22 7
-26 0 -5 -8 -11 -7 -21 1 -11 9 -14 9 -14 0 0 -9 -5 -9 -20 -1 -16 9 -20 8
-20 -6 0 -13 -3 -14 -15 -4 -12 10 -15 10 -15 0 0 -7 -8 -10 -20 -7 -11 3 -20
1 -20 -4 0 -6 -8 -6 -19 1 -14 7 -20 7 -23 -1 -2 -6 -16 -11 -31 -11 -15 0
-24 -4 -21 -9 5 -8 -10 -13 -30 -10 -5 1 -6 -5 -3 -14 4 -8 2 -15 -4 -15 -6 0
-7 -6 -3 -12 6 -10 5 -10 -8 0 -12 10 -17 10 -26 -1 -8 -9 -8 -17 -1 -24 7 -7
3 -10 -15 -8 -15 2 -24 0 -21 -5 8 -13 -6 -40 -21 -40 -8 0 -11 -7 -8 -17 5
-14 4 -15 -4 -4 -6 8 -18 11 -33 6 -23 -7 -23 -6 -4 8 18 14 18 15 -9 12 -21
-3 -26 0 -22 12 5 13 4 14 -8 4 -11 -9 -16 -9 -22 0 -5 8 -3 10 7 4 11 -6 12
-5 2 5 -7 8 -21 15 -30 16 -10 2 -31 5 -48 9 -16 3 -36 6 -42 7 -7 1 -13 5
-13 9 0 4 -13 4 -30 -1 -21 -6 -30 -5 -30 3 -1 7 -5 6 -13 -3 -7 -9 -20 -14
-31 -12 -10 2 -16 0 -13 -5 8 -13 -36 -11 -45 2 -5 6 -8 5 -8 -4 0 -7 -6 -11
-15 -7 -8 3 -15 1 -15 -5 0 -6 -5 -7 -12 -3 -7 5 -9 2 -6 -8 4 -8 0 -15 -8
-15 -7 0 -10 5 -7 11 4 6 -3 3 -15 -7 -11 -11 -25 -17 -30 -14 -4 3 -14 -2
-22 -13 -7 -10 -19 -16 -27 -13 -7 3 -13 -1 -13 -10 0 -9 -5 -19 -12 -23 -7
-5 -8 -3 -3 5 5 10 2 9 -13 0 -12 -7 -18 -17 -16 -21 8 -12 -10 -10 -23 3 -8
8 -13 7 -18 -2 -5 -8 -4 -10 3 -5 7 4 12 1 12 -8 0 -10 -6 -13 -17 -9 -12 5
-14 3 -8 -8 7 -12 6 -12 -7 -1 -13 10 -18 10 -24 1 -5 -8 -3 -9 7 -4 12 8 12
6 0 -8 -16 -20 -42 -22 -60 -4 -10 8 -12 8 -7 0 3 -6 1 -15 -5 -19 -7 -4 -10
-3 -7 2 4 8 -25 44 -37 44 -3 0 -8 0 -12 0 -5 0 -1 5 7 10 8 5 10 10 5 10 -6
0 -18 -9 -28 -20 -10 -13 -23 -17 -34 -13 -15 6 -16 4 -6 -8 10 -13 10 -16 -2
-16 -8 0 -15 7 -15 14 0 8 -4 11 -10 8 -5 -3 -10 3 -10 14 0 12 -5 21 -11 21
-5 0 -7 -6 -3 -12 4 -7 -2 -5 -14 6 -12 10 -19 23 -16 27 3 5 0 9 -5 9 -6 0
-11 -5 -11 -11 0 -8 -4 -8 -15 1 -12 10 -14 8 -10 -9 2 -11 -1 -23 -6 -27 -6
-4 -6 -10 1 -19 8 -9 8 -15 0 -20 -6 -4 -7 -13 -2 -23 5 -9 7 -23 6 -29 -1 -7
-2 -17 -3 -23 -2 -17 -21 -11 -45 15 -13 14 -27 25 -32 25 -5 0 -2 -5 6 -10 9
-6 10 -10 3 -10 -7 0 -17 8 -22 18 -6 9 -11 13 -11 8 0 -5 -11 3 -25 18 -28
31 -34 24 -7 -8 17 -21 17 -21 -4 -3 -11 9 -24 14 -28 10 -4 -5 -7 -3 -6 2 4
19 0 30 -21 55 -11 14 -18 20 -15 13 4 -6 1 -15 -6 -19 -7 -4 -10 -4 -6 1 4 4
0 14 -10 22 -9 8 -12 12 -5 9 6 -4 15 -1 19 5 4 8 3 9 -5 5 -6 -4 -14 0 -17 8
-3 9 -15 16 -26 16 -10 0 -16 5 -13 10 3 6 2 10 -3 10 -5 0 -12 9 -15 20 -3
12 -14 20 -25 20 -16 0 -19 5 -14 22 4 16 2 19 -8 13 -10 -6 -12 -3 -8 13 4
12 3 20 -1 18 -3 -2 -15 3 -26 11 -13 10 -15 14 -4 10 14 -5 14 -1 1 41 -8 26
-19 55 -24 65 -4 9 -4 17 0 17 10 0 9 30 -2 48 -4 7 -2 12 4 12 6 0 8 5 4 12
-11 18 -12 48 -2 54 4 3 3 14 -2 25 -6 11 -8 24 -5 29 3 6 -1 10 -10 10 -10 0
-13 5 -9 12 5 8 2 9 -9 5 -10 -4 -20 0 -26 11 -6 10 -11 12 -11 4 0 -10 -5
-10 -20 -2 -11 6 -20 7 -20 2 0 -10 -41 -10 -57 1 -18 11 -16 1 3 -18 15 -15
14 -15 -11 -9 -22 5 -26 4 -20 -6 6 -10 4 -12 -8 -7 -16 6 -23 -8 -18 -36 1
-4 -8 -3 -19 3 -11 6 -20 7 -19 3 4 -25 -3 -54 -17 -67 -8 -9 -12 -20 -9 -26
3 -5 2 -10 -4 -10 -5 0 -11 6 -13 12 -3 7 -7 2 -10 -10 -4 -12 -2 -20 3 -16
21 13 6 -12 -23 -39 -18 -17 -27 -27 -21 -23 23 13 14 -14 -13 -39 -14 -13
-26 -30 -28 -37 -1 -7 -5 -19 -10 -27 -5 -8 -3 -16 5 -22 11 -7 9 -9 -6 -10
-11 -1 -24 -1 -28 0 -5 1 -6 -3 -2 -9 8 -13 -4 -50 -16 -50 -6 0 -7 5 -3 12 5
7 3 8 -5 3 -9 -5 -10 -10 -2 -18 13 -13 15 -30 2 -23 -5 3 -12 -1 -15 -10 -4
-10 -2 -13 7 -9 6 4 4 0 -5 -7 -11 -10 -14 -19 -8 -28 6 -10 3 -20 -10 -32
-12 -11 -17 -25 -13 -35 4 -9 2 -14 -3 -10 -9 5 -13 -9 -14 -56 -1 -9 -5 -15
-10 -12 -6 3 -7 -1 -4 -9 3 -9 11 -13 17 -9 6 3 7 1 3 -5 -4 -7 -14 -12 -21
-12 -9 0 -12 -6 -8 -17 5 -12 3 -14 -8 -8 -12 7 -12 6 -1 -7 10 -13 10 -17 -4
-22 -13 -5 -14 -9 -5 -20 8 -10 9 -16 1 -21 -5 -3 -10 -17 -10 -31 0 -13 -4
-24 -9 -24 -5 0 -12 -7 -15 -16 -3 -8 -2 -12 4 -9 15 9 12 -4 -4 -21 -8 -7
-12 -23 -9 -34 3 -13 0 -20 -8 -20 -11 0 -11 -2 1 -10 12 -7 12 -10 1 -10 -7
0 -11 -6 -7 -15 3 -8 1 -15 -5 -15 -6 0 -7 -5 -3 -11 9 -15 11 -89 2 -89 -4 0
-3 -13 2 -30 6 -20 5 -30 -2 -30 -7 0 -7 -4 1 -13 6 -8 8 -17 4 -20 -3 -4 0
-14 8 -24 9 -11 10 -14 2 -9 -9 5 -11 2 -7 -8 3 -9 10 -16 14 -16 9 0 7 -26
-3 -36 -3 -4 2 -18 13 -31 10 -13 16 -31 13 -39 -3 -8 1 -14 8 -14 12 0 12 -2
1 -9 -10 -6 -8 -10 8 -14 19 -5 20 -8 10 -27 -8 -15 -8 -20 -1 -16 6 4 11 2
11 -4 0 -6 4 -9 9 -6 5 4 7 -2 4 -13 -3 -10 1 -22 8 -27 9 -5 10 -2 5 11 -5
15 -4 16 8 5 9 -6 14 -17 13 -23 -1 -7 3 -11 10 -10 7 2 10 -3 7 -11 -3 -7 2
-16 10 -19 11 -4 13 -1 9 11 -3 9 4 4 15 -11 14 -20 21 -25 25 -15 4 9 6 8 6
-4 1 -9 5 -20 11 -23 6 -4 7 1 4 12 -4 13 -3 14 4 5 13 -18 3 -59 -15 -67 -14
-5 -14 -3 -2 12 13 16 12 17 -3 5 -9 -8 -15 -19 -12 -26 3 -7 -2 -19 -11 -26
-8 -7 -15 -10 -15 -6 0 4 -13 0 -30 -9 -17 -9 -30 -11 -30 -5 0 11 -36 14 -43
3 -2 -5 -3 -3 -1 2 1 6 -5 20 -13 30 -11 13 -14 15 -10 4 3 -9 0 -16 -8 -16
-7 0 -10 8 -7 19 3 14 0 17 -13 11 -13 -4 -16 -3 -11 5 4 7 2 12 -4 12 -6 0
-8 5 -5 10 3 6 -1 10 -10 10 -9 0 -14 4 -11 9 4 5 -2 8 -11 7 -11 -2 -20 -15
-24 -34 -3 -17 -2 -29 2 -26 5 3 9 -4 9 -16 0 -12 4 -18 10 -15 6 3 7 -1 4 -9
-4 -10 -1 -16 9 -16 8 0 18 -7 21 -16 6 -15 4 -15 -11 -3 -15 12 -15 11 1 -8
10 -13 23 -20 29 -16 6 3 7 1 3 -5 -4 -7 -3 -12 3 -12 6 0 13 -16 17 -35 3
-19 11 -35 18 -35 8 0 8 -2 0 -8 -17 -11 -13 -42 5 -42 10 0 12 -3 5 -8 -6 -4
-10 -15 -9 -24 2 -10 -2 -15 -10 -12 -9 4 -11 -3 -7 -22 3 -19 1 -25 -6 -20
-8 5 -10 2 -6 -8 4 -10 -1 -18 -10 -22 -14 -5 -14 -9 -4 -22 11 -13 10 -15 -8
-10 -18 5 -20 1 -19 -28 2 -19 0 -32 -4 -30 -4 3 -13 -5 -21 -17 -12 -19 -11
-20 2 -10 12 10 15 10 15 -2 0 -8 -6 -15 -14 -15 -7 0 -13 -7 -13 -15 0 -8 -9
-31 -21 -51 -11 -21 -18 -45 -16 -54 2 -10 -4 -23 -14 -31 -19 -14 -27 -35 -9
-24 6 3 7 -1 4 -9 -3 -9 -11 -16 -16 -16 -6 0 -8 -7 -4 -15 3 -8 1 -15 -5 -15
-6 0 -8 -4 -4 -9 3 -5 0 -13 -6 -16 -5 -4 -8 -13 -5 -20 2 -7 -2 -16 -10 -19
-8 -3 -14 -15 -14 -26 0 -11 -5 -20 -10 -20 -7 0 -7 -6 0 -20 9 -16 8 -18 -5
-14 -11 4 -13 2 -9 -9 3 -8 0 -18 -6 -22 -9 -6 -9 -10 1 -16 11 -7 10 -9 -3
-9 -10 0 -18 -4 -18 -10 0 -5 5 -10 11 -10 6 0 3 -7 -5 -16 -18 -18 -21 -28
-5 -18 6 3 4 -4 -4 -17 -8 -13 -14 -36 -13 -51 1 -16 -2 -28 -6 -28 -4 0 -4
-11 1 -23 5 -13 5 -30 1 -37 -5 -8 -6 -19 -2 -24 7 -13 7 -75 -1 -83 -4 -3 -2
-13 3 -23 6 -11 4 -26 -5 -44 -8 -14 -9 -24 -4 -20 8 4 8 0 0 -13 -6 -11 -7
-24 -3 -29 4 -5 -2 -2 -12 6 -11 8 -17 10 -13 4 3 -6 -7 -27 -23 -46 -16 -19
-26 -38 -23 -42 11 -10 12 -37 2 -30 -5 3 -7 10 -4 15 4 5 1 9 -4 9 -14 0 -14
-27 -1 -35 5 -3 25 1 44 9 30 13 35 13 40 -1 3 -8 4 -19 1 -23 -3 -5 -1 -11 5
-15 7 -4 7 -12 0 -26 -6 -11 -7 -19 -1 -19 5 0 12 -7 15 -16 3 -8 2 -12 -4 -9
-6 3 -10 1 -10 -4 0 -6 5 -11 11 -11 5 0 7 -5 4 -10 -3 -5 -2 -10 2 -10 5 0 9
-18 8 -41 -1 -26 4 -43 12 -46 10 -4 11 -9 3 -18 -8 -9 -7 -14 1 -17 7 -2 13
-20 15 -39 1 -18 5 -43 7 -54 3 -11 6 -28 6 -38 1 -11 11 -21 23 -25 20 -5 20
-6 4 -12 -16 -5 -17 -8 -4 -21 8 -8 14 -24 13 -36 -1 -15 3 -19 13 -15 11 4
13 2 7 -9 -7 -11 -6 -12 7 -2 8 7 19 9 24 5 5 -4 0 3 -11 16 -13 16 -14 21 -4
17 10 -4 15 1 15 15 0 11 -3 20 -7 20 -4 0 -6 16 -5 36 1 20 -2 38 -6 40 -4 3
-3 16 2 29 7 17 6 25 -1 25 -8 0 -8 4 0 13 6 8 7 18 3 22 -4 5 2 5 12 1 16 -5
17 -4 7 8 -7 8 -10 20 -6 27 4 6 8 26 10 45 1 18 7 40 14 48 8 10 9 16 1 21
-6 3 -8 11 -4 16 18 30 31 -51 23 -153 -4 -57 10 -211 20 -217 8 -5 9 -15 2
-33 -5 -13 -6 -31 -1 -38 5 -7 5 -23 0 -35 -5 -12 -5 -27 -1 -34 5 -7 7 -23 5
-37 -1 -13 3 -27 8 -31 7 -4 8 -1 3 8 -5 8 -5 11 0 7 4 -4 7 -39 7 -78 0 -46
4 -70 11 -70 7 0 5 -5 -3 -10 -11 -7 -11 -10 -2 -10 7 0 10 -5 7 -10 -3 -6 -2
-10 3 -10 6 0 8 -10 4 -22 -3 -12 -1 -19 4 -15 5 3 10 -2 11 -11 4 -45 34 -98
48 -84 4 4 5 -1 2 -10 -3 -10 -1 -20 5 -24 7 -4 8 -3 4 4 -4 7 -5 12 -1 12 3
0 10 -12 15 -26 6 -14 15 -22 20 -19 6 3 13 -1 16 -9 3 -9 9 -14 13 -12 4 3 8
-5 8 -16 1 -12 7 -24 13 -28 6 -4 12 -17 13 -29 1 -12 6 -20 14 -17 7 3 10 -1
6 -10 -3 -7 0 -14 7 -14 10 0 10 -3 0 -15 -7 -9 -8 -15 -2 -15 6 0 7 -13 2
-35 -5 -20 -4 -33 1 -29 5 3 9 0 9 -6 0 -6 5 -8 13 -4 9 6 9 4 -1 -8 -10 -13
-10 -17 3 -22 9 -3 14 -10 11 -15 -4 -5 0 -12 6 -14 8 -3 6 -6 -4 -6 -10 -1
-18 -6 -18 -12 0 -5 5 -7 12 -3 6 4 4 -3 -5 -16 -12 -17 -13 -28 -6 -41 7 -14
6 -17 -4 -13 -11 4 -14 -2 -12 -21 3 -21 1 -24 -10 -15 -12 10 -13 8 -10 -10
3 -15 -3 -23 -21 -30 -21 -8 -23 -13 -14 -29 9 -17 7 -19 -11 -16 -16 3 -19 0
-15 -11 4 -10 -1 -18 -14 -21 -11 -3 -20 -10 -20 -15 0 -5 6 -6 13 -2 8 5 8 2
-2 -9 -7 -9 -10 -17 -5 -17 5 0 1 -5 -9 -11 -9 -6 -15 -15 -12 -20 4 -5 11 -7
16 -4 5 3 6 -1 3 -9 -4 -11 11 -7 54 14 33 16 62 33 63 37 2 5 21 22 42 38 21
15 59 60 85 99 l47 71 5 -35 c3 -19 32 -76 64 -125 32 -50 83 -126 112 -170
62 -94 70 -114 73 -178 2 -33 -2 -49 -12 -52 -7 -3 -65 -7 -128 -9 -152 -4
-261 -33 -377 -98 -128 -74 -147 -90 -217 -197 -41 -63 -78 -107 -104 -124
-22 -15 -43 -27 -45 -27 -3 0 -17 -5 -33 -12 -15 -6 -35 -12 -43 -13 -100 -11
-141 -20 -150 -30 -16 -19 11 -26 125 -31 99 -5 137 -17 99 -30 -10 -4 -26
-13 -34 -19 -8 -7 -33 -18 -55 -25 -74 -23 -223 -91 -229 -105 -5 -14 9 -19
97 -31 39 -5 45 -9 36 -20 -7 -8 -28 -21 -48 -30 -20 -8 -63 -28 -96 -44 -33
-17 -76 -32 -95 -35 -19 -4 -36 -8 -38 -10 -8 -8 44 -45 63 -45 36 0 85 -21
85 -36 0 -8 -39 -32 -90 -56 -50 -22 -90 -46 -90 -53 0 -6 -14 -32 -30 -58
-17 -26 -30 -59 -30 -72 l0 -25 3440 0 3440 0 0 699 c0 719 0 721 -37 715 -7
-1 -14 -2 -15 -4 -11 -8 -71 -3 -75 7 -3 7 -9 10 -14 7 -16 -10 -14 53 3 74 6
6 6 12 1 12 -5 0 -8 16 -8 36 1 22 -4 40 -14 47 -9 7 -24 24 -34 39 -10 16
-24 28 -31 28 -8 0 -21 11 -29 24 -9 13 -22 23 -29 23 -31 -3 -108 16 -108 27
0 6 -5 4 -10 -4 -5 -8 -10 -10 -10 -5 0 6 -13 10 -29 10 -16 0 -27 -4 -24 -8
3 -4 -12 -1 -32 7 -21 9 -50 16 -66 16 -16 0 -29 5 -29 11 0 8 -5 8 -15 -1
-12 -10 -16 -9 -21 4 -5 12 -10 14 -19 6 -10 -8 -15 -8 -20 0 -5 8 -11 8 -21
-1 -11 -9 -14 -9 -14 0 0 9 -5 9 -20 1 -14 -8 -20 -8 -20 0 0 8 -6 8 -20 0
-14 -8 -20 -8 -20 0 0 8 -6 8 -20 0 -14 -8 -20 -8 -20 0 0 8 -6 8 -20 0 -11
-6 -20 -7 -20 -2 0 13 -62 5 -71 -10 -7 -10 -9 -10 -9 2 0 11 -3 10 -11 -4 -9
-15 -13 -16 -20 -5 -7 11 -9 11 -9 1 0 -10 -5 -10 -20 -2 -15 8 -18 8 -15 -3
4 -8 -3 -13 -17 -13 -28 0 -41 16 -26 33 5 7 8 20 4 28 -4 13 -2 14 14 5 16
-9 18 -8 14 5 -4 10 0 15 11 15 15 0 16 2 4 17 -10 11 -10 14 -1 9 6 -4 12 -3
12 3 0 5 9 8 20 6 17 -3 18 -1 10 15 -7 14 -6 19 6 24 12 5 13 10 5 19 -8 10
-7 17 1 25 9 9 9 12 0 12 -10 0 -10 5 -2 20 6 11 7 20 2 20 -5 0 -8 10 -7 23
2 13 -3 34 -11 48 -7 13 -14 20 -14 14 0 -5 -6 1 -13 15 -11 22 -10 27 13 48
l25 23 -30 -18 -30 -18 32 33 c17 17 36 32 42 32 6 0 11 7 11 15 0 8 5 15 11
15 8 0 8 4 0 14 -9 11 -6 13 14 11 14 -2 28 2 32 7 3 6 1 8 -5 4 -6 -3 -13 -2
-17 4 -3 5 -1 10 4 10 6 0 11 7 11 15 0 9 7 18 15 21 8 3 20 24 25 45 6 21 15
39 21 39 6 0 6 7 -1 20 -8 16 -8 20 2 18 7 -2 12 5 11 15 -1 13 4 17 15 12 13
-5 14 -4 5 6 -8 8 -9 18 -3 30 7 11 7 20 0 24 -7 4 -6 13 1 27 8 14 8 18 0 14
-7 -5 -9 -1 -5 8 3 9 11 16 18 16 6 0 4 5 -4 10 -12 7 -12 10 -1 10 7 0 11 6
7 15 -3 8 -1 15 5 15 6 0 6 7 -1 20 -6 11 -7 20 -2 20 4 0 6 16 4 36 -4 29 -2
35 9 28 12 -7 12 -5 0 9 -7 9 -9 17 -3 17 5 0 10 15 10 34 0 19 3 39 7 45 3 6
1 11 -6 11 -8 0 -8 4 2 16 7 9 14 31 15 50 0 19 4 37 7 41 4 3 2 12 -4 20 -9
10 -8 13 1 13 10 0 10 3 1 14 -8 10 -9 16 -1 21 7 4 7 12 0 26 -8 14 -7 19 1
19 9 0 9 3 0 14 -8 10 -9 16 -1 21 7 4 7 12 0 26 -6 10 -7 19 -2 19 5 0 9 7 9
15 0 8 -4 15 -9 15 -5 0 -8 8 -6 18 2 9 -3 23 -12 30 -8 8 -10 11 -3 8 8 -4 6
4 -3 24 -9 16 -13 34 -10 39 4 5 2 12 -3 15 -5 4 -8 18 -6 32 1 15 -3 28 -12
31 -12 5 -12 7 -1 14 10 7 11 9 0 9 -7 0 -10 5 -7 10 3 6 1 10 -4 10 -6 0 -11
5 -11 11 0 5 5 7 10 4 6 -3 10 -4 10 -1 0 3 -12 13 -27 21 -16 9 -20 14 -10
11 9 -3 17 -1 17 4 0 6 -5 10 -11 10 -5 0 -8 4 -5 9 3 5 -1 14 -9 21 -8 7 -15
18 -15 24 0 6 5 4 10 -4 5 -8 10 -10 10 -5 0 6 -4 15 -9 20 -6 6 -11 33 -12
60 -1 28 -7 56 -13 64 -9 12 -8 13 2 7 11 -7 12 -4 3 12 -6 12 -19 25 -28 30
-9 6 -18 17 -19 26 -1 9 2 14 7 11 5 -4 6 1 3 9 -3 9 -10 13 -15 10 -5 -3 -9
7 -9 21 0 14 -4 24 -9 21 -15 -10 -31 50 -18 63 9 9 8 11 -5 6 -11 -5 -16 -1
-15 12 1 10 -3 17 -9 16 -6 -1 -11 4 -11 12 0 8 5 11 11 8 6 -4 5 0 -1 9 -7 8
-9 19 -5 23 4 5 2 5 -4 2 -7 -4 -14 0 -18 8 -3 8 0 15 6 15 7 0 -2 12 -20 26
-17 15 -29 31 -26 36 3 5 -2 16 -12 24 -11 9 -12 12 -4 8 11 -6 10 -2 -2 13
-10 11 -18 26 -18 34 0 12 -2 12 -10 -1 -6 -9 -5 -17 3 -23 8 -6 8 -7 -3 -4
-9 2 -14 13 -12 25 2 15 -1 20 -11 16 -7 -2 -20 3 -28 13 -12 16 -12 17 2 6
13 -10 16 -10 16 2 0 7 -3 14 -6 13 -22 -2 -31 5 -31 25 0 17 -2 19 -9 7 -6
-8 -7 -18 -4 -24 3 -5 1 -6 -5 -2 -6 4 -8 14 -5 23 4 9 -1 19 -11 25 -9 5 -13
14 -10 20 5 8 1 9 -10 5 -14 -5 -15 -3 -6 13 8 15 6 21 -10 30 -17 9 -18 14
-9 33 7 12 8 19 4 15 -10 -9 -35 10 -35 26 0 6 5 4 10 -4 5 -8 10 -11 10 -6 0
5 -8 18 -17 29 -13 15 -14 18 -3 12 10 -5 8 -1 -4 13 -10 12 -16 28 -13 36 3
8 -1 17 -8 20 -9 3 -12 12 -8 22 4 11 2 15 -4 11 -12 -8 -26 20 -18 34 4 5 0
6 -8 3 -8 -3 -20 3 -28 13 -13 17 -13 17 5 3 18 -14 19 -14 7 8 -7 12 -17 20
-23 16 -7 -4 -8 -3 -4 4 4 7 2 12 -4 12 -6 0 -8 5 -4 11 3 6 3 14 -2 18 -17
12 -35 52 -28 63 5 8 1 9 -10 5 -9 -4 -14 -3 -11 2 3 5 1 12 -5 16 -6 4 -7 11
-4 17 4 7 2 8 -4 4 -7 -4 -12 -1 -12 8 0 9 -7 16 -16 16 -8 0 -12 5 -9 10 3 6
1 10 -5 10 -6 0 -8 5 -5 10 3 6 1 10 -5 10 -17 0 -40 26 -32 36 4 5 0 3 -9 -4
-19 -14 -30 -6 -22 15 5 13 1 15 -21 11 -15 -3 -24 -3 -21 0 3 3 -2 14 -11 24
-14 15 -20 16 -32 5 -13 -10 -15 -9 -9 5 3 10 1 23 -6 30 -16 17 -15 31 4 50
11 12 20 13 34 6 13 -8 16 -7 11 1 -6 9 26 17 56 12 4 0 5 6 2 14 -4 8 -1 15
5 15 6 0 11 -4 11 -9 0 -5 10 -7 22 -3 13 3 19 1 15 -5 -5 -7 1 -9 15 -5 16 4
19 2 13 -9 -7 -11 -5 -11 10 1 11 9 16 10 11 3 -6 -12 5 -18 27 -14 4 0 6 -2
6 -6 -3 -20 2 -26 11 -13 8 13 10 12 10 -2 0 -10 3 -18 8 -19 4 0 15 -2 25 -4
10 -2 17 3 17 12 0 13 -3 13 -17 2 -15 -11 -15 -10 1 8 16 20 17 25 5 40 -12
15 -12 16 1 8 13 -7 13 -6 2 7 -10 13 -10 17 0 21 7 3 1 6 -14 6 -19 1 -28 6
-28 17 0 13 -3 14 -14 5 -12 -10 -13 -8 -9 10 5 19 3 21 -15 17 -15 -4 -26 1
-37 18 -9 14 -20 22 -25 19 -6 -4 -10 -2 -10 2 0 14 -98 31 -110 19 -7 -7 -10
-7 -10 1 0 6 -11 8 -26 5 l-25 -5 20 34 c14 22 17 37 10 45 -6 8 -4 14 7 18 9
4 14 13 10 21 -3 8 -1 15 4 15 6 0 10 12 10 26 0 15 10 36 23 47 16 15 17 18
5 14 -10 -4 -18 -2 -18 3 0 6 5 10 11 10 6 0 9 7 6 15 -4 8 -2 17 4 21 7 4 6
10 -1 19 -8 10 -8 15 0 20 8 5 8 11 1 19 -7 9 -7 16 0 23 8 8 7 13 -1 18 -8 5
-8 10 1 21 9 11 9 14 -1 14 -10 0 -10 3 -1 14 8 10 9 16 1 21 -6 4 -7 12 0 24
6 12 5 22 -2 29 -9 9 -9 12 0 12 10 0 10 5 2 20 -8 15 -8 20 1 20 9 0 9 3 0
14 -8 10 -9 16 -1 21 6 3 7 12 3 18 -4 7 -9 21 -10 32 -2 10 -7 22 -11 25 -10
6 -9 26 0 36 4 4 0 13 -10 21 -9 8 -11 12 -4 8 19 -10 14 9 -7 25 -19 13 -19
15 -3 27 16 12 15 12 -2 6 -13 -4 -17 -3 -12 5 3 6 2 13 -4 17 -6 4 -8 11 -4
16 3 6 -2 20 -13 32 -18 21 -18 21 1 7 17 -13 17 -11 -2 24 -12 22 -19 43 -16
48 3 4 1 8 -4 8 -6 0 -13 7 -16 16 -3 8 -2 12 4 9 6 -3 10 -1 10 4 0 6 -9 11
-19 11 -14 0 -18 5 -14 20 3 12 2 20 -3 19 -21 -4 -28 2 -14 11 13 8 12 10 -2
10 -10 0 -17 3 -17 8 4 21 -2 42 -10 37 -13 -7 -24 31 -15 47 5 9 2 8 -9 -1
-15 -12 -17 -12 -12 2 4 8 1 18 -6 23 -8 5 -10 3 -4 -6 5 -8 4 -11 -3 -7 -5 4
-8 16 -5 27 3 12 0 20 -6 20 -7 0 -9 -6 -5 -12 4 -8 3 -10 -2 -5 -5 5 -9 12
-10 15 -4 31 -37 75 -48 64 -4 -3 -4 2 0 12 6 16 4 18 -15 13 -18 -4 -20 -3
-10 9 10 12 9 13 -4 9 -8 -4 -18 -1 -23 6 -4 7 -3 10 4 5 6 -3 14 -1 18 5 4 7
3 9 -3 6 -11 -7 -33 12 -30 25 1 3 -2 10 -7 15 -5 5 -6 3 -2 -4 4 -8 1 -13 -9
-13 -9 0 -14 3 -12 8 7 10 -19 32 -27 24 -4 -3 -4 1 -1 10 7 17 -20 32 -38 21
-7 -4 -5 2 3 12 9 11 10 16 3 11 -9 -5 -13 -1 -13 11 0 13 -2 15 -9 5 -6 -10
-11 -9 -22 4 -12 15 -12 17 0 9 10 -5 12 -4 7 4 -6 9 -11 9 -24 -1 -13 -11
-15 -10 -9 5 4 10 3 16 -2 12 -6 -3 -14 3 -20 12 -6 10 -11 14 -11 9 0 -4 -9
2 -20 15 -18 23 -19 23 -20 4 0 -16 -2 -17 -9 -5 -6 8 -7 18 -5 22 3 4 -6 8
-20 8 -14 0 -29 6 -33 13 -4 6 -17 19 -28 27 l-20 15 20 -24 20 -24 -32 23
c-31 23 -46 39 -21 24 6 -4 8 -3 5 4 -4 5 -17 8 -30 5 -18 -4 -19 -3 -7 6 13
9 12 11 -5 12 -35 3 -40 4 -52 12 -8 5 -13 3 -13 -5 0 -9 -3 -9 -8 -2 -8 12
-16 14 -84 18 -26 1 -45 -1 -42 -6z m-3496 -1748 c0 -5 -2 -10 -4 -10 -3 0 -8
5 -11 10 -3 6 -1 10 4 10 6 0 11 -4 11 -10z m-96 -905 c-4 -8 -11 -15 -16 -15
-6 0 -5 6 2 15 7 8 14 15 16 15 2 0 1 -7 -2 -15z m183 -1947 c-3 -8 -6 -5 -6
6 -1 11 2 17 5 13 3 -3 4 -12 1 -19z m5636 -611 c30 -20 75 -103 70 -129 -6
-25 -30 -31 -146 -34 -60 -1 -111 -5 -114 -8 -16 -16 61 -31 155 -31 114 1
129 -10 60 -41 -23 -10 -68 -37 -98 -60 -44 -32 -61 -39 -78 -33 -12 5 -22 13
-22 19 0 20 -133 156 -178 182 -26 15 -75 36 -110 47 -35 12 -73 28 -85 36
-21 15 -21 15 8 15 17 0 51 7 77 14 25 8 61 17 80 20 18 4 48 10 66 14 18 4
90 7 160 7 105 0 133 -3 155 -18z m-4925 -370 c2 -26 0 -57 -3 -68 -6 -19 -7
-19 -34 3 -14 13 -47 32 -71 42 -58 26 -56 23 -37 44 14 15 24 60 26 116 1 15
13 8 59 -35 52 -49 57 -58 60 -102z"/>
<path d="M1926 5812 c2 -3 -2 -12 -9 -20 -8 -10 -8 -13 -1 -9 7 4 15 0 18 -9
5 -14 8 -14 21 0 18 18 19 32 3 42 -7 4 -8 3 -4 -4 8 -14 -5 -16 -20 -3 -6 5
-9 6 -8 3z"/>
<path d="M5391 5135 c-1 -18 27 -47 34 -36 3 6 1 11 -5 11 -6 0 -8 5 -4 12 4
6 3 8 -4 4 -5 -3 -13 0 -15 6 -3 7 -6 9 -6 3z"/>
<path d="M946 4678 c3 -5 10 -6 15 -3 13 9 11 12 -6 12 -8 0 -12 -4 -9 -9z"/>
<path d="M5830 4046 c0 -2 7 -7 16 -10 8 -3 12 -2 9 4 -6 10 -25 14 -25 6z"/>
</g>
</svg>
